<svg width="19" height="20" viewBox="0 0 19 20" fill="none" xmlns="http://www.w3.org/2000/svg">
<path d="M8.8081 0.0592537C8.63624 0.137375 8.4839 0.293615 8.39797 0.481102C8.33547 0.621719 8.31985 0.738899 8.31985 1.18028V1.7154L8.05815 1.76227C7.66364 1.83649 6.93712 2.08257 6.56215 2.27005C5.60908 2.75049 4.82397 3.44967 4.24979 4.34024C3.83185 4.98473 3.59358 5.57454 3.39437 6.46901C3.37094 6.58619 3.33969 7.4338 3.32407 8.55873C3.28891 10.6484 3.27329 10.8203 3.02721 11.5507C2.73035 12.4491 2.28116 13.1483 1.53511 13.8904C0.917964 14.5037 0.839844 14.6521 0.839844 15.2185C0.839844 15.57 0.851562 15.6325 0.953118 15.8434C1.10155 16.1403 1.36325 16.402 1.66011 16.5504L1.89447 16.6637H9.15964H16.4248L16.6475 16.5582C16.9443 16.4215 17.1865 16.1872 17.3466 15.8942C17.4638 15.6755 17.4794 15.6091 17.4912 15.2771C17.5146 14.6873 17.456 14.5701 16.7803 13.8709C15.9795 13.0467 15.5655 12.3866 15.2804 11.4882C15.0538 10.7773 15.0304 10.5117 14.9991 8.46108C14.9718 6.77759 14.9601 6.55104 14.8898 6.25418C14.6163 5.11363 14.1007 4.184 13.3 3.38327C12.4719 2.55519 11.4486 2.00054 10.3393 1.7818L9.99943 1.7115V1.14903C9.99943 0.555317 9.976 0.449854 9.78851 0.246742C9.5854 0.0201931 9.10496 -0.0696449 8.8081 0.0592537Z" fill="white"/>
<path d="M3.24199 0.707659C2.82404 0.926395 1.73817 2.31693 1.19914 3.32468C0.449191 4.71522 0 6.46121 0 7.97283C0 8.51186 0.0273421 8.62514 0.210924 8.82434C0.457003 9.09777 0.937442 9.16417 1.26164 8.97668C1.60146 8.77747 1.65615 8.62904 1.71474 7.69941C1.80067 6.39481 2.12487 5.25035 2.71858 4.14104C3.09747 3.43405 3.49978 2.87549 4.13256 2.18022C4.4216 1.86384 4.49191 1.71541 4.49191 1.43027C4.488 1.13341 4.23802 0.770155 3.95679 0.664693C3.79273 0.602197 3.39042 0.625632 3.24199 0.707659Z" fill="white"/>
<path d="M14.3155 0.695916C14.007 0.856062 13.8507 1.12167 13.8507 1.46931C13.8546 1.77007 13.9132 1.87944 14.2999 2.30129C15.1631 3.23482 15.7959 4.30116 16.1904 5.48859C16.4599 6.29713 16.6396 7.32051 16.6396 8.06655C16.6396 8.46497 16.6982 8.62511 16.9091 8.83604C17.2607 9.18758 17.7802 9.17977 18.1161 8.81651C18.3387 8.57824 18.3739 8.41419 18.3426 7.79704C18.2255 5.51984 17.4638 3.46918 16.0889 1.74273C15.7412 1.30135 15.2139 0.766224 15.0577 0.69201C14.8897 0.609983 14.4718 0.61389 14.3155 0.695916Z" fill="white"/>
<path d="M6.09348 17.5582C6.09348 17.5894 6.14816 17.7652 6.21456 17.9488C6.57001 18.937 7.4098 19.687 8.42927 19.9291C8.71441 19.9994 8.85502 20.0072 9.2964 19.9955C9.75731 19.9799 9.86668 19.9604 10.1635 19.8588C11.1635 19.5112 11.8978 18.7339 12.1986 17.7066L12.2611 17.5035H9.17532C6.51142 17.5035 6.09348 17.5113 6.09348 17.5582Z" fill="white"/>
</svg>
