<svg width="20" height="20" viewBox="0 0 20 20" fill="none" xmlns="http://www.w3.org/2000/svg">
<g clip-path="url(#clip0_0_152)">
<path d="M8.75974 0.371313C5.50583 0.804907 2.7363 2.77756 1.31052 5.676C0.841766 6.62913 0.560516 7.50022 0.40036 8.51584C0.298798 9.15647 0.298798 10.844 0.40036 11.4846C0.728485 13.5588 1.65427 15.3713 3.13864 16.8596C4.88474 18.6018 7.12692 19.594 9.50583 19.676C10.248 19.7033 10.3574 19.676 10.5058 19.4338C10.6113 19.2658 10.6113 18.9416 10.5097 18.7737C10.373 18.551 10.2558 18.5158 9.58005 18.4768C8.31833 18.4026 7.36911 18.1565 6.26755 17.6174C4.58005 16.7932 3.22849 15.4455 2.40036 13.7698C1.7988 12.5549 1.52145 11.3596 1.52145 10.0002C1.52145 7.97288 2.19333 6.12522 3.50583 4.53928C4.62692 3.18381 6.25974 2.16819 7.9863 1.75803C9.6152 1.36741 11.3457 1.45725 12.8769 2.01584C13.9004 2.38303 14.791 2.91819 15.6855 3.69944L16.0332 4.00413L15.6035 4.02366C15.248 4.04319 15.1465 4.06272 15.0293 4.13303C14.666 4.35959 14.6738 4.92991 15.0449 5.15647C15.166 5.23069 15.2441 5.23459 16.4238 5.23459C17.8574 5.23459 17.8769 5.23069 18.0371 4.91819C18.123 4.75022 18.1269 4.73069 18.1152 3.50803C18.1035 2.32834 18.0996 2.26584 18.0215 2.16428C17.8144 1.88694 17.541 1.80881 17.2441 1.95334C16.9746 2.08225 16.9121 2.2385 16.9121 2.75413V3.17209L16.5918 2.87131C15.2168 1.59006 13.4121 0.715063 11.5215 0.410376C10.9668 0.320532 9.31442 0.297094 8.75974 0.371313Z" fill="white"/>
<path d="M9.44772 4.0626C7.5571 4.23448 5.83444 5.32823 4.85788 6.98057C3.70554 8.92979 3.77585 11.4181 5.03757 13.3048C6.52585 15.5314 9.31491 16.4923 11.8735 15.6603C12.768 15.3673 13.479 14.922 14.1977 14.1993C14.9008 13.5001 15.3149 12.8556 15.6235 11.9728C16.3344 9.95323 15.8813 7.6251 14.4712 6.0626C13.4008 4.8712 12.0688 4.20323 10.4985 4.0626C10.0141 4.01963 9.93991 4.01963 9.44772 4.0626ZM10.2212 6.40635C10.3188 6.44932 10.4204 6.53526 10.4673 6.60948C10.5415 6.73448 10.5454 6.80479 10.5454 8.1876C10.5454 9.51963 10.5493 9.64073 10.6157 9.69541C10.6508 9.72666 11.018 9.94151 11.4243 10.1759C11.8344 10.4064 12.2251 10.6407 12.2954 10.6915C12.5415 10.8751 12.6079 11.1915 12.4594 11.4376C12.3579 11.6017 12.0727 11.7345 11.8969 11.7032C11.8305 11.6876 11.2837 11.3946 10.6821 11.0431C9.78757 10.5235 9.57663 10.3868 9.51022 10.2735C9.43601 10.1407 9.4321 10.0782 9.4321 8.45713C9.4321 6.84385 9.43601 6.77354 9.51022 6.64073C9.58835 6.50791 9.8696 6.32823 9.99851 6.32823C10.0298 6.32823 10.1313 6.36338 10.2212 6.40635Z" fill="white"/>
<path d="M18.525 7.10955C18.107 7.29705 18.0797 7.91815 18.482 8.16424C18.8648 8.39862 19.3726 8.11737 19.3804 7.66815C19.3882 7.40643 19.2867 7.23455 19.0601 7.11737C18.8492 7.0119 18.7398 7.0119 18.525 7.10955Z" fill="white"/>
<path d="M18.7715 9.48853C18.5918 9.60962 18.5137 9.75806 18.5137 10.0002C18.5137 10.3713 18.7285 10.5862 19.0996 10.5862C19.4707 10.5862 19.6855 10.3713 19.6855 10.0002C19.6855 9.85571 19.6621 9.75024 19.6113 9.67212C19.4902 9.49243 19.3418 9.41431 19.0996 9.41431C18.9551 9.41431 18.8496 9.43774 18.7715 9.48853Z" fill="white"/>
<path d="M18.4824 11.8362C18.2089 12.0042 18.1113 12.4104 18.2793 12.6877C18.3652 12.8245 18.6191 12.9651 18.7871 12.969C18.9472 12.969 19.2285 12.8049 19.3105 12.6604C19.4082 12.4885 19.4043 12.1721 19.3027 12.0354C19.1035 11.762 18.7441 11.676 18.4824 11.8362Z" fill="white"/>
<path d="M17.6347 14.0002C17.4707 14.0705 17.3183 14.2619 17.2871 14.4299C17.1933 14.926 17.7207 15.3205 18.1621 15.0822C18.4433 14.9338 18.5527 14.5978 18.4199 14.2814C18.3105 14.0158 17.9121 13.8713 17.6347 14.0002Z" fill="white"/>
<path d="M16.2207 15.8635C16.1543 15.8831 16.0449 15.9651 15.9785 16.0432C15.6426 16.4495 15.916 17.0315 16.4433 17.0315C17.0605 17.0315 17.2637 16.1877 16.7168 15.9065C16.5332 15.8167 16.4238 15.8049 16.2207 15.8635Z" fill="white"/>
<path d="M14.3496 17.305C14.1855 17.3557 13.9941 17.5784 13.959 17.7542C13.9082 18.0393 14.0449 18.3245 14.2793 18.4222C14.7324 18.6097 15.1816 18.305 15.1426 17.8401C15.1074 17.4417 14.7324 17.1917 14.3496 17.305Z" fill="white"/>
<path d="M12.1069 18.2307C12.0757 18.2424 12.0054 18.2893 11.9585 18.3362C11.6812 18.5862 11.6851 18.9924 11.9663 19.2581C12.1148 19.3909 12.4976 19.4143 12.6851 19.2971C12.8218 19.2112 12.9663 18.9534 12.9663 18.7893C12.9663 18.6253 12.8218 18.3674 12.6851 18.2815C12.5601 18.2073 12.2515 18.1799 12.1069 18.2307Z" fill="white"/>
</g>
<defs>
<clipPath id="clip0_0_152">
<rect width="20" height="20" fill="white"/>
</clipPath>
</defs>
</svg>
