<svg width="29" height="27" viewBox="0 0 29 27" fill="none" xmlns="http://www.w3.org/2000/svg">
<path d="M1.95008 0.0933633C1.2084 0.356165 0.618554 1.04529 0.431672 1.87458C0.396632 2.02058 0.367432 2.94914 0.367432 3.98283V5.83997H14.4478H28.5223L28.5048 3.92443L28.4872 2.01474L28.3179 1.66434C28.0901 1.20297 27.4886 0.613127 26.998 0.362005C26.3323 0.0291228 26.1395 -7.72476e-05 24.4167 -7.72476e-05H22.8574L22.8399 1.47161C22.8224 2.84402 22.8166 2.96082 22.7056 3.10683C22.583 3.28203 22.1858 3.50395 22.0048 3.50395C21.8238 3.50395 21.4266 3.28203 21.304 3.10683C21.193 2.96082 21.1872 2.84402 21.1697 1.47161L21.1521 -7.72476e-05H14.0915H7.02508V1.40737C7.02508 2.75058 7.01924 2.8265 6.8966 3.04259C6.73892 3.32291 6.34764 3.53315 6.07899 3.48059C5.79867 3.42803 5.53003 3.22947 5.42491 3.01339C5.34899 2.84986 5.33147 2.58122 5.33147 1.40737V-7.72476e-05H3.77218C2.51657 0.00576258 2.15448 0.023283 1.95008 0.0933633Z" fill="#151515"/>
<path d="M0.367554 15.9845C0.367554 22.759 0.385074 24.3767 0.449314 24.6161C0.642036 25.3461 1.0742 25.8834 1.69908 26.1812L2.09037 26.3681L14.0917 26.3856C24.9425 26.3973 26.1221 26.3915 26.4141 26.3039C27.4128 26.0177 28.2187 25.2936 28.5107 24.4234C28.6334 24.0671 28.6334 23.9971 28.6334 15.856V7.65078H14.5005H0.367554V15.9845ZM8.50857 11.003C8.61369 11.0438 8.75386 11.1548 8.82394 11.2424C8.94658 11.3942 8.95242 11.4585 8.95242 12.6557C8.95242 14.0398 8.92906 14.1624 8.58449 14.3668C8.41513 14.472 8.28665 14.4836 7.1712 14.4836C5.85135 14.4836 5.75791 14.4661 5.54183 14.1741C5.42503 14.0164 5.41919 13.9347 5.41919 12.7024C5.41919 10.8803 5.37247 10.927 7.18872 10.927C8.01801 10.9212 8.36257 10.9446 8.50857 11.003ZM15.4524 11.003C15.5575 11.0438 15.6918 11.1373 15.7561 11.2132C15.867 11.3358 15.8729 11.4234 15.8729 12.7375V14.1332L15.7093 14.2909L15.5517 14.4544H14.1559H12.7601L12.6083 14.3143C12.363 14.0807 12.328 13.8529 12.3513 12.5739C12.3747 10.8978 12.3455 10.927 14.1384 10.927C14.9618 10.9212 15.3122 10.9446 15.4524 11.003ZM22.5422 11.0146C22.9218 11.2015 22.9393 11.2658 22.9393 12.6732C22.9393 13.3623 22.9218 14.0047 22.8926 14.0923C22.8692 14.1799 22.7641 14.3026 22.659 14.3668C22.4896 14.472 22.3612 14.4836 21.199 14.4836C19.3302 14.4836 19.4061 14.5596 19.4061 12.6849C19.4061 11.4585 19.4119 11.3942 19.5346 11.2424C19.7565 10.9562 19.92 10.927 21.1756 10.9212C22.1392 10.9212 22.3728 10.9387 22.5422 11.0146ZM8.60201 18.9513C8.9349 19.1206 8.95826 19.2608 8.94074 20.6624C8.91738 22.4553 8.97578 22.3969 7.1128 22.3969C5.92727 22.3969 5.88055 22.391 5.69951 22.2626C5.41919 22.064 5.37831 21.8246 5.40167 20.493C5.41919 19.4301 5.43087 19.325 5.54183 19.1732C5.75791 18.8812 5.85135 18.8637 7.18872 18.8637C8.18737 18.8637 8.46769 18.8812 8.60201 18.9513ZM15.5517 18.9513C15.8729 19.1206 15.9021 19.2549 15.9021 20.6566C15.9021 22.4962 15.9605 22.4494 13.9982 22.4144C12.3163 22.391 12.3455 22.4202 12.3455 20.6274C12.3396 19.3951 12.3747 19.2141 12.6608 18.9921C12.8185 18.8695 12.8769 18.8637 14.1033 18.8637C15.1312 18.8637 15.4173 18.8812 15.5517 18.9513ZM22.5539 18.9396C22.6298 18.9746 22.7524 19.0856 22.8167 19.1732C22.9335 19.3309 22.9393 19.4126 22.9393 20.6449C22.9393 22.467 22.986 22.4202 21.1698 22.4202C19.9375 22.4261 19.7565 22.391 19.5346 22.1049C19.4119 21.9472 19.4061 21.8888 19.4061 20.6624C19.4061 18.7936 19.3302 18.8695 21.1581 18.8695C22.04 18.8637 22.4546 18.887 22.5539 18.9396Z" fill="#151515"/>
</svg>
