<svg width="20" height="20" viewBox="0 0 20 20" fill="none" xmlns="http://www.w3.org/2000/svg">
<g clip-path="url(#clip0_0_145)">
<path d="M9.47072 0.0550518C8.98635 0.215208 9.0801 0.125364 4.65431 4.54333C2.32619 6.86755 0.365251 8.85974 0.291032 8.96912C-0.00584254 9.41052 -0.09178 10.0824 0.0761887 10.5902C0.330095 11.3441 0.931658 11.7894 1.79494 11.8597L2.10353 11.8871L2.11525 15.0746C2.12697 18.1996 2.13088 18.266 2.209 18.4769C2.50197 19.2504 2.99025 19.7269 3.7051 19.9379C3.88869 19.9926 4.18166 20.0004 5.79494 20.0004C7.59963 20.0004 7.67775 19.9965 7.80275 19.9222C7.87306 19.8793 7.96291 19.7894 8.00588 19.7191C8.0801 19.5941 8.084 19.516 8.084 17.1097C8.084 15.4183 8.09963 14.5785 8.12697 14.473C8.19338 14.2386 8.37697 14.0004 8.584 13.8793L8.7676 13.7699H10.002H11.2363L11.4278 13.8871C11.6426 14.0199 11.8457 14.3207 11.8887 14.559C11.9004 14.641 11.9121 15.8011 11.9121 17.141C11.9121 19.7777 11.9043 19.6761 12.127 19.8832L12.2324 19.9808L14.1113 19.9926C15.3692 20.0004 16.0606 19.9886 16.1973 19.9613C16.7363 19.848 17.3613 19.3715 17.6074 18.8871C17.8809 18.3402 17.8653 18.5629 17.8809 15.0551L17.8926 11.8832L18.2129 11.8558C18.9981 11.7894 19.5137 11.4457 19.8379 10.7816C19.9746 10.4926 19.9785 10.4808 19.9785 10.0004C19.9785 9.51599 19.9785 9.50818 19.8301 9.19958C19.6817 8.88708 19.6778 8.88318 15.3965 4.60193C11.1113 0.316771 11.1113 0.316771 10.7988 0.168333C10.502 0.0277081 10.4629 0.0198956 10.0567 0.0120831C9.77931 0.00427055 9.57228 0.0198956 9.47072 0.0550518Z" fill="white"/>
</g>
<defs>
<clipPath id="clip0_0_145">
<rect width="20" height="20" fill="white"/>
</clipPath>
</defs>
</svg>
