<svg width="33" height="35" viewBox="0 0 33 35" fill="none" xmlns="http://www.w3.org/2000/svg">
<path d="M15.4142 0.103724C15.1134 0.240435 14.8468 0.513855 14.6964 0.841959C14.5871 1.08804 14.5597 1.2931 14.5597 2.06552V3.00198L14.1018 3.08401C13.4114 3.21388 12.14 3.64452 11.4838 3.97263C9.81589 4.81339 8.44195 6.03695 7.43713 7.59545C6.70573 8.72331 6.28876 9.75547 5.94015 11.3208C5.89914 11.5259 5.84446 13.0092 5.81711 14.9778C5.75559 18.6348 5.72825 18.9356 5.29762 20.2138C4.77812 21.786 3.99203 23.0095 2.68645 24.3083C1.60644 25.3815 1.46973 25.6412 1.46973 26.6324C1.46973 27.2476 1.49023 27.3569 1.66796 27.726C1.92771 28.2455 2.38569 28.7035 2.90518 28.9633L3.31532 29.1615H16.0294H28.7434L29.1331 28.9769C29.6526 28.7377 30.0764 28.3276 30.3566 27.8149C30.5617 27.4321 30.589 27.3159 30.6095 26.7349C30.6505 25.7027 30.548 25.4977 29.3655 24.2741C27.9642 22.8318 27.2396 21.6766 26.7406 20.1044C26.3442 18.8604 26.3032 18.3956 26.2485 14.8069C26.2006 11.8608 26.1801 11.4643 26.0571 10.9449C25.5786 8.94888 24.6763 7.32203 23.275 5.92075C21.8259 4.47162 20.035 3.50097 18.0937 3.11819L17.499 2.99515V2.01083C17.499 0.971834 17.458 0.787275 17.1299 0.431829C16.7744 0.0353699 15.9337 -0.121847 15.4142 0.103724Z" fill="#3C3C3C"/>
<path d="M5.67348 1.23865C4.94208 1.62144 3.0418 4.05488 2.0985 5.81844C0.786084 8.25189 0 11.3074 0 13.9527C0 14.896 0.0478486 15.0942 0.369118 15.4428C0.799755 15.9213 1.64052 16.0375 2.20787 15.7094C2.80256 15.3608 2.89826 15.1011 3.00079 13.4742C3.15117 11.1912 3.71852 9.18835 4.75752 7.24707C5.42056 6.00984 6.12462 5.03236 7.23198 3.81564C7.7378 3.26196 7.86084 3.00221 7.86084 2.50322C7.85401 1.98372 7.41653 1.34802 6.92438 1.16346C6.63729 1.05409 5.93323 1.0951 5.67348 1.23865Z" fill="#3C3C3C"/>
<path d="M25.0522 1.2179C24.5122 1.49816 24.2388 1.96297 24.2388 2.57133C24.2456 3.09767 24.3481 3.28906 25.0249 4.0273C26.5355 5.66098 27.6429 7.52708 28.3332 9.60508C28.8049 11.02 29.1193 12.8109 29.1193 14.1165C29.1193 14.8137 29.2219 15.094 29.591 15.4631C30.2062 16.0783 31.1153 16.0646 31.7032 15.4289C32.0928 15.012 32.1543 14.7249 32.0996 13.6449C31.8945 9.65976 30.5616 6.07112 28.1555 3.04982C27.5472 2.2774 26.6244 1.34094 26.3509 1.21106C26.057 1.06752 25.3256 1.07435 25.0522 1.2179Z" fill="#3C3C3C"/>
<path d="M10.6635 30.7268C10.6635 30.7815 10.7591 31.0891 10.8754 31.4104C11.4974 33.1398 12.967 34.4522 14.7511 34.876C15.2501 34.999 15.4962 35.0127 16.2686 34.9922C17.0752 34.9648 17.2666 34.9307 17.7861 34.7529C19.536 34.1446 20.821 32.7843 21.3474 30.9866L21.4567 30.6311H16.0567C11.3949 30.6311 10.6635 30.6448 10.6635 30.7268Z" fill="#3C3C3C"/>
</svg>
