<svg width="20" height="20" viewBox="0 0 20 20" fill="none" xmlns="http://www.w3.org/2000/svg">
<g clip-path="url(#clip0_0_148)">
<path d="M16.1724 0.882833C15.5045 1.06252 14.9576 1.6133 14.7818 2.28518C14.6724 2.71096 14.7271 3.25783 14.9146 3.62111L14.9849 3.76565L14.067 4.8008C13.563 5.37111 13.1177 5.87502 13.0787 5.91408C13.0123 5.9844 13.0005 5.9844 12.7818 5.9258C12.4849 5.83986 11.9498 5.83986 11.6724 5.9219C11.3834 6.00783 11.2076 6.10158 10.9498 6.31252L10.731 6.49221L10.2349 6.28127L9.74274 6.07033L9.71539 5.75783C9.62555 4.68361 8.83649 3.94533 7.77008 3.94533C6.82477 3.94533 6.06696 4.5469 5.85602 5.46486C5.78571 5.75783 5.82477 6.28908 5.93414 6.57815L6.02008 6.80471L5.11383 7.71486L4.20367 8.62502L4.00446 8.5469C3.75446 8.44533 3.18805 8.41018 2.87946 8.47268C2.00836 8.65627 1.36774 9.46096 1.36383 10.3711C1.36383 11.6211 2.50055 12.5547 3.71539 12.3008C4.43805 12.1485 5.05524 11.543 5.21539 10.8281C5.29742 10.461 5.27399 10.0313 5.15289 9.71096L5.06696 9.48049L5.98102 8.56643L6.89508 7.65627L7.12555 7.7383C7.44196 7.85158 8.04742 7.8633 8.35602 7.75783C8.62555 7.66799 8.91852 7.49221 9.10211 7.32033L9.24274 7.18361L9.75446 7.40627L10.2701 7.62502V7.84768C10.2701 8.34377 10.4654 8.78518 10.856 9.18361C11.3013 9.63674 11.8951 9.83205 12.5201 9.7344C13.313 9.6094 13.981 8.9844 14.1412 8.20705C14.2037 7.90236 14.1685 7.41018 14.0591 7.12893C14.0123 7.00002 13.9693 6.86721 13.9654 6.83205C13.9654 6.79299 14.399 6.27346 14.9302 5.6719L15.899 4.57424L16.063 4.64065C16.1802 4.68361 16.356 4.70315 16.6763 4.70315C17.0513 4.70315 17.1607 4.68752 17.3482 4.6133C18.149 4.2969 18.6295 3.6094 18.6295 2.77346C18.6295 1.8594 18.0474 1.1094 17.1607 0.878926C16.8795 0.804708 16.4498 0.808614 16.1724 0.882833Z" fill="white"/>
<path d="M14.9576 12.0508V17.9688H14.4498H13.942V14.5703V11.1719H12.2232H10.5045V14.5703V17.9688H9.99664H9.48883V13.6133V9.25781H7.77008H6.05133V13.6133V17.9688H5.54352H5.03571V15.8594V13.75H3.31696H1.59821V15.8594V17.9688H0.797424H-0.00335693V18.5742V19.1797H9.99664H19.9966V18.5742V17.9688H19.1959H18.3951V12.0508V6.13281H16.6763H14.9576V12.0508Z" fill="white"/>
</g>
<defs>
<clipPath id="clip0_0_148">
<rect width="20" height="20" fill="white"/>
</clipPath>
</defs>
</svg>
