<svg width="20" height="20" viewBox="0 0 20 20" fill="none" xmlns="http://www.w3.org/2000/svg">
<path d="M1.09354 0.0742035C0.671744 0.226519 0.316344 0.546768 0.113259 0.956844L0 1.19117V9.15837V17.1256L0.124976 17.3794C0.195274 17.52 0.304628 17.6958 0.367116 17.7739C0.6405 18.1019 0.76157 18.1527 3.60476 19.1017L6.28783 20L6.69791 19.9883C7.07284 19.9766 7.13533 19.9649 7.37356 19.8477C7.84612 19.6134 8.1859 19.1798 8.29525 18.676C8.31869 18.5628 8.33821 18.2503 8.33821 17.9848V17.4966H9.77543C10.9276 17.4966 11.2595 17.4849 11.4431 17.438C12.1187 17.2662 12.7592 16.7467 13.056 16.1258C13.3294 15.5595 13.3411 15.4345 13.3294 13.2982L13.3177 11.4235L13.2201 11.2478C13.1654 11.1541 13.0443 11.0213 12.9545 10.9549C12.7983 10.8494 12.7553 10.8377 12.478 10.8377C12.2007 10.8377 12.1578 10.8494 12.0016 10.9549C11.9117 11.0213 11.7907 11.1541 11.736 11.2478L11.6384 11.4235L11.6188 13.3372L11.5993 15.2509L11.5095 15.3993C11.4001 15.5712 11.2244 15.7118 11.0369 15.7743C10.9471 15.8016 10.4784 15.8172 9.62312 15.8172H8.33821L8.3304 9.38098L8.31869 2.94864L8.23277 2.73384C8.05702 2.30424 7.67038 1.91759 7.26421 1.75747L7.06893 1.68327H8.97871C10.3027 1.67936 10.9315 1.69498 11.0369 1.72232C11.2205 1.777 11.4431 1.95665 11.5329 2.12068C11.5915 2.23003 11.6032 2.4214 11.6188 3.74927L11.6384 5.25288L11.7477 5.43644C11.9039 5.70592 12.1461 5.8387 12.478 5.8387C12.7553 5.8348 12.8998 5.78012 13.0795 5.60047C13.3216 5.35442 13.3177 5.38957 13.3294 3.78832C13.3411 2.10896 13.3216 1.91759 13.056 1.37083C12.7592 0.749853 12.1187 0.230423 11.4431 0.0585823C11.2439 0.00781059 10.5487 0 6.24878 0C1.56219 0.00390625 1.27709 0.00781059 1.09354 0.0742035Z" fill="white"/>
<path d="M15.5282 4.19448C15.329 4.26088 15.1611 4.40929 15.0439 4.62799C14.9619 4.7764 14.958 4.83889 14.9463 6.13942L14.9307 7.49462L13.1263 7.50634L11.3181 7.51805L11.158 7.63131C10.7323 7.92422 10.6815 8.59597 11.0564 8.95137C11.2986 9.17789 11.3025 9.17789 13.1966 9.17789H14.9346L14.9463 10.5175L14.958 11.8571L15.0596 12.0484C15.2002 12.3296 15.4189 12.4702 15.7352 12.4897C16.1922 12.521 16.1179 12.5757 18.016 10.6854C18.965 9.74028 19.793 8.89669 19.8477 8.81077C19.9727 8.63502 20.0156 8.2601 19.9375 8.01796C19.8985 7.90079 19.5235 7.50243 18.1254 6.10036C17.1256 5.09665 16.2976 4.29603 16.2156 4.25307C16.0203 4.15152 15.7391 4.12809 15.5282 4.19448Z" fill="white"/>
</svg>
