<svg width="20" height="20" viewBox="0 0 20 20" fill="none" xmlns="http://www.w3.org/2000/svg">
<g clip-path="url(#clip0_0_163)">
<path d="M8.52753 1.44537C6.70331 1.72272 5.03534 2.45709 3.65643 3.59381L3.31268 3.87897L4.64081 5.20709L5.96893 6.53522L6.14081 6.3985C6.54315 6.07037 7.23456 5.67584 7.77362 5.47272C8.11346 5.3399 8.67206 5.19928 9.04706 5.14459L9.39472 5.09381L9.40643 3.23053L9.41425 1.36725L9.21112 1.37115C9.09784 1.37115 8.78925 1.40631 8.52753 1.44537Z" fill="white"/>
<path d="M10.5939 3.22662L10.6057 5.09381L10.9416 5.14069C11.9963 5.29303 13.0549 5.75006 13.8596 6.3985L14.0314 6.53522L15.3557 5.211L16.6838 3.88678L16.5158 3.73834C15.7853 3.0899 14.6642 2.41412 13.6994 2.03522C12.8674 1.711 11.7385 1.44147 10.9455 1.38287L10.5861 1.35553L10.5939 3.22662Z" fill="white"/>
<path d="M2.30487 4.92584C0.996277 6.49615 0.136902 8.56256 0.0158081 10.4337L-0.0115356 10.8204H1.84784H3.70721L3.73065 10.6719C3.85565 9.85162 4.0119 9.29694 4.28925 8.70319C4.45721 8.34381 4.79706 7.79303 5.03143 7.50787L5.16815 7.336L3.84003 6.00787L2.5119 4.67975L2.30487 4.92584Z" fill="white"/>
<path d="M16.1564 6.01178L14.8322 7.336L14.9689 7.50787C15.2033 7.79303 15.5432 8.34381 15.7111 8.70319C15.9885 9.29694 16.1447 9.85162 16.2697 10.6719L16.2932 10.8204H18.1525H20.0119L19.9885 10.4571C19.9182 9.4024 19.5744 8.13287 19.0666 7.05084C18.7346 6.34772 18.0978 5.37115 17.633 4.85162L17.4807 4.68365L16.1564 6.01178Z" fill="white"/>
<path d="M9.40642 9.62116C9.26189 9.67195 9.04314 9.78132 8.92205 9.86335C8.20721 10.3555 7.94549 11.3477 8.31658 12.168C8.51189 12.5977 8.91033 12.961 10.1447 13.8399C11.4064 14.7344 14.3947 16.7032 14.6681 16.8204C14.8439 16.8946 14.9455 16.8907 15.1447 16.7969C15.3635 16.6993 15.4689 16.5235 15.4689 16.2657C15.4689 16.0352 15.4377 15.9805 14.5314 14.5899C13.3049 12.7032 12.1877 11.1016 11.6174 10.4063C11.2463 9.9532 10.9494 9.73054 10.5588 9.60945C10.2033 9.50007 9.75017 9.50398 9.40642 9.62116Z" fill="white"/>
<path d="M0.0119019 12.3126C0.109558 13.8009 0.726746 15.5587 1.62128 16.8946C2.10956 17.6251 2.81268 18.4532 3.05096 18.5782C3.17987 18.6446 3.42596 18.6485 3.58221 18.5938C3.70721 18.5469 5.56268 16.7149 5.64862 16.5548C5.71503 16.4298 5.71893 16.1212 5.66034 16.0079C5.6369 15.961 5.47675 15.7657 5.30487 15.5743C4.52362 14.6876 3.98065 13.5743 3.80487 12.5079C3.76971 12.3009 3.73456 12.0899 3.72675 12.0391L3.71112 11.9532H1.84784H-0.0115356L0.0119019 12.3126Z" fill="white"/>
<path d="M16.2736 12.0157C16.2619 12.0508 16.2502 12.1251 16.2502 12.1797C16.2463 12.4962 15.9807 13.4454 15.7619 13.9297L15.6291 14.2188L16.051 14.8751C16.2892 15.2501 16.5002 15.629 16.5392 15.7501C16.6174 16.004 16.6291 16.4337 16.5627 16.6797C16.4533 17.0899 16.1057 17.5587 15.7736 17.7422C15.6916 17.7891 15.6252 17.836 15.6252 17.8516C15.6252 17.9063 16.3205 18.5547 16.4182 18.5899C16.5744 18.6485 16.8205 18.6446 16.9494 18.5782C17.1877 18.4532 17.8908 17.6251 18.3791 16.8946C19.2736 15.5587 19.8908 13.8008 19.9885 12.3126L20.0119 11.9532H18.1564C16.4963 11.9532 16.2932 11.961 16.2736 12.0157Z" fill="white"/>
</g>
<defs>
<clipPath id="clip0_0_163">
<rect width="20" height="20" fill="white"/>
</clipPath>
</defs>
</svg>
