<svg width="21" height="20" viewBox="0 0 21 20" fill="none" xmlns="http://www.w3.org/2000/svg">
<path d="M8.43411 0.0517902C7.70716 0.180766 7.05447 0.516884 6.5542 1.02106L6.42131 1.15004L6.1321 1.07187C5.91323 1.01324 5.71781 0.993702 5.33479 0.993702C4.72509 0.989794 4.39288 1.06796 3.86135 1.34545C3.14221 1.71675 2.49343 2.50623 2.30582 3.24491C2.28237 3.3348 2.25502 3.44033 2.24329 3.4755C2.22375 3.54195 2.31364 3.54585 3.70892 3.54585C4.52967 3.54585 5.198 3.55758 5.198 3.57321C5.198 3.59275 5.28789 4.42132 5.39342 5.42186C5.50285 6.4224 5.58884 7.24706 5.58884 7.25097C5.58884 7.28223 6.01485 7.20407 6.25326 7.13372C6.52684 7.04773 6.93331 6.85232 7.14436 6.7038L7.27724 6.61391L7.53519 6.73897C8.03155 6.98129 8.34813 7.04383 9.04772 7.04383C9.7395 7.04383 9.94664 7.00474 10.4743 6.77806C10.8143 6.62954 11.1387 6.4224 11.4084 6.18008L11.5999 6.00811L11.9673 6.12927C12.2643 6.23089 12.4128 6.25825 12.7841 6.27388C13.046 6.28561 13.3469 6.27388 13.4993 6.24652C13.8667 6.18399 14.367 5.99248 14.6328 5.8166L14.8594 5.66809L15.1213 5.80097C15.8717 6.18008 16.8683 6.18399 17.6344 5.8127C18.3965 5.4414 18.9437 4.77308 19.1508 3.95232C19.2563 3.54195 19.2563 2.92443 19.1508 2.51405C18.9398 1.68548 18.2831 0.931169 17.4898 0.602868C17.1028 0.446534 16.8566 0.399633 16.3759 0.403542C15.8991 0.403542 15.6059 0.462167 15.219 0.634134L15.008 0.727935L14.7617 0.559876C14.4334 0.329283 14.2536 0.243299 13.8472 0.122141C13.554 0.0322485 13.429 0.0166154 12.9952 0.0127068C12.2995 0.0127068 11.7953 0.153408 11.2481 0.501251L11.0644 0.622409L10.955 0.544242C10.3258 0.102599 9.28223 -0.104544 8.43411 0.0517902Z" fill="white"/>
<path d="M1.19596 4.8044C1.18423 4.87475 1.15687 5.19523 1.13342 5.51963C1.10997 5.84011 1.08261 6.18796 1.07089 6.28957L1.04744 6.47717H2.70849H4.37344L4.3539 6.3482C4.33045 6.18014 4.18193 4.77313 4.18193 4.72232C4.18193 4.69106 3.72466 4.67933 2.69676 4.67933H1.2155L1.19596 4.8044Z" fill="white"/>
<path d="M0.961454 7.7356C0.934095 7.91148 0 19.7147 0 19.871V20H2.9039H5.81171L5.79608 19.8906C5.78826 19.8319 5.50295 17.1391 5.15902 13.903C4.81508 10.6669 4.52196 7.92711 4.51023 7.81377L4.48678 7.61054H2.73194H0.980995L0.961454 7.7356Z" fill="white"/>
<path d="M7.39068 9.81484C6.33543 11.0968 6.05794 11.4564 6.05794 11.5462C6.05794 11.6049 6.14392 12.4725 6.25336 13.4731C6.35888 14.4736 6.44877 15.2943 6.44877 15.2983C6.44877 15.3061 6.85524 15.31 7.34769 15.31H8.24661V15.8767V16.4434H7.40241H6.55821L6.58166 16.588C6.59338 16.6701 6.67546 17.4127 6.76144 18.2412C6.84742 19.0698 6.92559 19.8046 6.93732 19.871L6.96077 20H13.4838H20.0107V14.0984V8.19679H19.2017L18.3888 8.2007L16.845 10.0728L15.3012 11.9449L15.2895 10.0689L15.2816 8.19679H14.4648H13.648L12.0025 10.1744L10.3571 12.1559V10.1744V8.19679H9.54028H8.72343L7.39068 9.81484ZM11.7641 15.8767V16.4434H10.6112H9.4582V15.8767V15.31H10.6112H11.7641V15.8767ZM15.2816 15.8767V16.4434H14.1287H12.9757V15.8767V15.31H14.1287H15.2816V15.8767ZM18.7992 15.8767V16.4434H17.6462H16.4932V15.8767V15.31H17.6462H18.7992V15.8767Z" fill="white"/>
</svg>
