<svg width="20" height="20" viewBox="0 0 20 20" fill="none" xmlns="http://www.w3.org/2000/svg">
<path d="M8.13545 0.0626202C7.90107 0.148558 7.63935 0.398558 7.51045 0.652464C7.41279 0.859495 7.40107 0.921995 7.37763 1.50403C7.3581 2.03137 7.33857 2.16809 7.25654 2.38293C7.01826 3.03137 6.48701 3.53528 5.81123 3.75403C5.58466 3.82825 5.44795 3.84387 5.13545 3.84387C4.6706 3.83996 4.45966 3.77356 3.90498 3.45715C3.69795 3.34387 3.44795 3.22668 3.34638 3.19934C2.97529 3.1095 2.46357 3.24621 2.21748 3.50403C2.09248 3.63684 0.596383 6.20325 0.522164 6.422C0.447945 6.62512 0.451851 7.01575 0.529976 7.2384C0.623726 7.51575 0.846383 7.7345 1.30732 8.00403C1.7917 8.28918 2.08076 8.56653 2.27607 8.93762C2.46357 9.29309 2.53779 9.59387 2.53779 10.0001C2.53779 10.4064 2.46357 10.7072 2.27607 11.0626C2.08076 11.4337 1.7917 11.7111 1.30732 11.9962C0.846383 12.2657 0.623726 12.4845 0.529976 12.7618C0.451851 12.9845 0.447945 13.379 0.522164 13.5782C0.600289 13.797 2.09248 16.3673 2.21748 16.4962C2.46357 16.754 2.97529 16.8907 3.34638 16.8009C3.44795 16.7736 3.69795 16.6564 3.90498 16.5431C4.45966 16.2267 4.6706 16.1603 5.13545 16.1564C5.44795 16.1564 5.58466 16.172 5.81123 16.2462C6.48701 16.465 7.01826 16.9689 7.25654 17.6173C7.33857 17.8322 7.3581 17.9689 7.37763 18.4962C7.40107 19.0782 7.41279 19.1407 7.51045 19.3478C7.64326 19.6095 7.90498 19.8556 8.15107 19.9376C8.4206 20.0314 11.5769 20.0314 11.8464 19.9376C12.0925 19.8556 12.3542 19.6095 12.487 19.3478C12.5847 19.1407 12.5964 19.0782 12.6198 18.4962C12.6394 17.9689 12.6589 17.8322 12.7409 17.6173C12.9792 16.9689 13.5104 16.465 14.1862 16.2462C14.4128 16.172 14.5495 16.1564 14.862 16.1564C15.3269 16.1603 15.5378 16.2267 16.0925 16.5431C16.2995 16.6564 16.5495 16.7736 16.6511 16.8009C17.0222 16.8907 17.5339 16.754 17.78 16.4962C17.905 16.3634 19.4011 13.797 19.4753 13.5782C19.5495 13.3751 19.5456 12.9845 19.4675 12.7618C19.3737 12.4845 19.1511 12.2657 18.6979 12.0001C18.2487 11.7384 17.9987 11.5157 17.7917 11.1954C17.3425 10.4923 17.3425 9.50793 17.7917 8.80481C17.9987 8.4845 18.2487 8.26184 18.6979 8.00012C19.1511 7.7345 19.3737 7.51575 19.4675 7.2384C19.5456 7.01575 19.5495 6.62121 19.4753 6.422C19.4011 6.21496 17.9636 3.72668 17.8151 3.547C17.5729 3.25793 17.0456 3.10168 16.655 3.19934C16.5534 3.22668 16.2839 3.35168 16.0573 3.47668C15.5183 3.77746 15.1433 3.88293 14.7058 3.84778C13.8112 3.78137 13.0495 3.21106 12.7409 2.38293C12.6589 2.16809 12.6394 2.03137 12.6198 1.50403C12.5964 0.921995 12.5847 0.859495 12.487 0.652464C12.3542 0.390745 12.0925 0.144651 11.8464 0.0626202C11.5847 -0.0272236 8.38545 -0.0233173 8.13545 0.0626202ZM10.78 5.05871C11.8229 5.23059 12.7487 5.71106 13.5183 6.48059C14.1198 7.07825 14.4831 7.66418 14.7487 8.45715C15.5261 10.7814 14.4323 13.3673 12.194 14.4884C10.8542 15.1603 9.14326 15.1603 7.7917 14.4845C6.84248 14.0079 5.99091 13.1564 5.51045 12.1954C5.32295 11.8204 5.12373 11.1837 5.05732 10.754C4.81904 9.16809 5.33076 7.62903 6.4792 6.48059C7.2331 5.72278 8.1706 5.23059 9.18232 5.06262C9.62763 4.9884 10.3308 4.9884 10.78 5.05871Z" fill="white"/>
<path d="M9.28842 6.19153C7.37826 6.55481 6.05795 8.23059 6.14389 10.1759C6.22201 11.9064 7.34701 13.2892 9.05404 13.7579C9.48764 13.879 10.5111 13.879 10.9447 13.7579C12.3626 13.3673 13.3665 12.3634 13.7572 10.9454C13.8783 10.5118 13.8783 9.4884 13.7572 9.05481C13.3665 7.63293 12.347 6.6134 10.9447 6.24622C10.5462 6.14075 9.70639 6.1134 9.28842 6.19153ZM11.9954 8.64465C12.2572 8.81653 12.3353 9.14075 12.179 9.37903C12.097 9.49622 11.3626 10.0704 9.97982 11.0822C9.5267 11.4181 9.50717 11.4259 9.29623 11.4259C9.14389 11.4259 9.05404 11.4025 8.98373 11.3478C8.81185 11.215 7.87435 10.1954 7.80404 10.0665C7.55795 9.62512 8.06967 9.08997 8.51889 9.31653C8.5931 9.35559 8.80795 9.5509 8.99545 9.75012C9.18685 9.95325 9.35482 10.1173 9.37435 10.1173C9.38998 10.1173 9.79623 9.82434 10.2767 9.46887C11.5033 8.55481 11.5033 8.55481 11.6986 8.55481C11.804 8.55481 11.9095 8.58606 11.9954 8.64465Z" fill="white"/>
</svg>
