<svg width="26" height="26" viewBox="0 0 26 26" fill="none" xmlns="http://www.w3.org/2000/svg">
<path d="M18.5362 8.78823C14.6585 6.55563 13.0628 5.65084 12.9311 5.61323C12.6938 5.54038 12.4 5.55213 12.1533 5.64379C11.9794 5.70489 11.9277 5.74249 11.7091 5.96105C11.4764 6.19371 11.4576 6.22191 11.3824 6.44282C11.2485 6.83059 11.2743 6.96925 11.702 8.1584C11.9088 8.73653 12.0804 9.2183 12.0804 9.2277C12.0804 9.2418 10.4917 9.2512 8.55055 9.2559C4.46606 9.2606 4.77627 9.2277 4.318 9.68597C4.07359 9.93038 4.05479 9.95858 3.97254 10.1865C3.89028 10.4145 3.88558 10.5837 3.88793 12.9973C3.88793 15.3803 3.89498 15.5847 3.97489 15.8103C4.05479 16.0407 4.07124 16.0665 4.318 16.3133C4.75277 16.748 4.42376 16.7151 8.5247 16.7222L12.1039 16.7245L11.9418 17.1734C11.8548 17.4202 11.6785 17.9066 11.554 18.2568C11.2861 18.9947 11.2602 19.1992 11.3824 19.5564C11.4553 19.775 11.4764 19.8055 11.7091 20.0382C11.9418 20.2709 11.9723 20.292 12.1862 20.3649C12.4588 20.4589 12.7572 20.4565 13.0087 20.3602C13.1074 20.3226 15.6197 18.8913 18.5926 17.1734L24.0002 14.0548L24.1929 13.8433C24.3597 13.6671 24.402 13.5965 24.4678 13.4038C24.5618 13.1265 24.5571 12.8351 24.4584 12.5625C24.3997 12.4003 24.3503 12.3275 24.1694 12.1371L23.9508 11.9092L18.5362 8.78823Z" fill="white"/>
</svg>
