<svg width="36" height="35" viewBox="0 0 36 35" fill="none" xmlns="http://www.w3.org/2000/svg">
<path d="M14.8823 0.25293L14.5952 0.512695L14.0757 2.63867L13.5562 4.76465L12.9341 4.99023C12.5991 5.11328 12.0796 5.33203 11.7925 5.47559L11.2661 5.74219L9.60498 4.7373L7.94385 3.72559H7.49951C6.93213 3.72559 6.95264 3.71191 5.1001 5.58496C3.58936 7.10254 3.46631 7.28711 3.56201 7.80664C3.58252 7.93652 4.06787 8.81836 4.63525 9.76855L5.66748 11.498L5.42822 12.0244C5.29834 12.3115 5.12061 12.7422 5.03857 12.9883L4.88135 13.4326L2.75537 13.959L0.629395 14.4785L0.376465 14.7725L0.116699 15.0596V17.5V19.9404L0.376465 20.2344L0.629395 20.5215L2.75537 21.041L4.88818 21.5605L5.03857 22.0117C5.12744 22.2578 5.33252 22.75 5.49658 23.1191L5.8042 23.7754L4.94971 25.2041C3.84912 27.0361 3.84912 27.043 3.91064 27.4531C3.9585 27.7812 4.00635 27.8359 5.57178 29.4082C6.45361 30.3037 7.2876 31.083 7.41748 31.1445C7.87549 31.3633 8.11475 31.2744 9.81689 30.2559L11.3755 29.3193L11.9224 29.5859C12.23 29.7363 12.7153 29.9414 13.0161 30.0439L13.5562 30.2354L14.0757 32.3613L14.5952 34.4873L14.8823 34.7471L15.1763 35H17.6167H20.0571L20.3511 34.7402L20.6382 34.4873L21.1577 32.3613L21.6772 30.2354L22.2993 30.0098C22.6343 29.8867 23.1196 29.6816 23.3726 29.5586C23.6255 29.4287 23.8716 29.3262 23.9126 29.3262C23.9536 29.3262 24.6235 29.709 25.396 30.1738C26.1753 30.6387 26.9067 31.0693 27.0298 31.1309C27.3237 31.2744 27.6313 31.2676 27.9731 31.1035C28.3081 30.9395 31.2476 28.0137 31.3501 27.7334C31.3911 27.624 31.4253 27.4053 31.4253 27.248C31.4253 26.9883 31.3022 26.7422 30.4478 25.3135L29.4702 23.6797L29.7163 23.1602C29.8599 22.873 30.0581 22.3945 30.1606 22.1006L30.3521 21.5605L32.478 21.041L34.604 20.5215L34.8638 20.2344L35.1167 19.9404V17.5V15.0596L34.8638 14.7656L34.604 14.4785L32.478 13.959L30.3521 13.4395L30.1606 12.8994C30.0581 12.5986 29.853 12.1133 29.7026 11.8125L29.4429 11.2656L30.4067 9.66602C30.9331 8.78418 31.3843 7.95703 31.4048 7.82715C31.5005 7.24609 31.4595 7.19141 29.7642 5.48926C28.896 4.61426 28.0894 3.85547 27.9663 3.79395C27.8501 3.73926 27.6108 3.69141 27.4399 3.69141C27.1733 3.69141 26.9546 3.80078 25.4849 4.68262L23.8374 5.66699L23.2974 5.40723C23.0034 5.26367 22.5181 5.05859 22.2173 4.95605L21.6772 4.76465L21.1577 2.63867L20.6382 0.512695L20.3511 0.25293L20.0571 0H17.6167H15.1763L14.8823 0.25293ZM19.3599 10.5752C21.3696 11.1357 22.9966 12.4277 23.9194 14.1914C24.2886 14.9092 24.4663 15.415 24.6235 16.1943C24.7808 16.9531 24.7329 18.5391 24.5347 19.2432C23.981 21.2461 22.689 22.8799 20.9253 23.8027C19.688 24.4453 18.7925 24.6436 17.3501 24.5889C15.6479 24.5273 14.3218 24.0215 13.0298 22.9414C11.8062 21.916 10.938 20.4395 10.6099 18.8057C10.4526 18.0469 10.5005 16.4609 10.6987 15.7568C11.4438 13.0498 13.4946 11.1084 16.2495 10.4932C16.8921 10.3496 18.7173 10.3975 19.3599 10.5752Z" fill="#3C3C3C"/>
</svg>
